<mxfile host="app.diagrams.net" modified="2022-06-20T22:21:55.093Z" agent="5.0 (Windows NT 10.0; Win64; x64) AppleWebKit/537.36 (KHTML, like Gecko) Chrome/101.0.0.0 Safari/537.36" etag="DF8pj6amJIZt6PJCdZ3w" version="20.0.1" type="github">
  <diagram id="C5RBs43oDa-KdzZeNtuy" name="Page-1">
    <mxGraphModel dx="1209" dy="781" grid="1" gridSize="10" guides="1" tooltips="1" connect="1" arrows="1" fold="1" page="1" pageScale="1" pageWidth="827" pageHeight="1169" math="0" shadow="0">
      <root>
        <mxCell id="WIyWlLk6GJQsqaUBKTNV-0" />
        <mxCell id="WIyWlLk6GJQsqaUBKTNV-1" parent="WIyWlLk6GJQsqaUBKTNV-0" />
        <mxCell id="3PapQ6xfj2ttz4BDpu7m-4" value="LibertyBuilder" style="swimlane;fontStyle=1;align=center;verticalAlign=top;childLayout=stackLayout;horizontal=1;startSize=26;horizontalStack=0;resizeParent=1;resizeParentMax=0;resizeLast=0;collapsible=1;marginBottom=0;" vertex="1" parent="WIyWlLk6GJQsqaUBKTNV-1">
          <mxGeometry x="210" y="10" width="180" height="294" as="geometry" />
        </mxCell>
        <mxCell id="3PapQ6xfj2ttz4BDpu7m-17" value="+ LibertyBuilder()" style="text;strokeColor=none;fillColor=none;align=left;verticalAlign=top;spacingLeft=4;spacingRight=4;overflow=hidden;rotatable=0;points=[[0,0.5],[1,0.5]];portConstraint=eastwest;" vertex="1" parent="3PapQ6xfj2ttz4BDpu7m-4">
          <mxGeometry y="26" width="180" height="26" as="geometry" />
        </mxCell>
        <mxCell id="3PapQ6xfj2ttz4BDpu7m-5" value="+ virtual LibertyCell* makeCell&#xa;" style="text;strokeColor=none;fillColor=none;align=left;verticalAlign=top;spacingLeft=4;spacingRight=4;overflow=hidden;rotatable=0;points=[[0,0.5],[1,0.5]];portConstraint=eastwest;" vertex="1" parent="3PapQ6xfj2ttz4BDpu7m-4">
          <mxGeometry y="52" width="180" height="26" as="geometry" />
        </mxCell>
        <mxCell id="3PapQ6xfj2ttz4BDpu7m-8" value="+ virtual LibertyPort* makePort" style="text;strokeColor=none;fillColor=none;align=left;verticalAlign=top;spacingLeft=4;spacingRight=4;overflow=hidden;rotatable=0;points=[[0,0.5],[1,0.5]];portConstraint=eastwest;" vertex="1" parent="3PapQ6xfj2ttz4BDpu7m-4">
          <mxGeometry y="78" width="180" height="26" as="geometry" />
        </mxCell>
        <mxCell id="3PapQ6xfj2ttz4BDpu7m-9" value="+ TimingArcSet*" style="text;strokeColor=none;fillColor=none;align=left;verticalAlign=top;spacingLeft=4;spacingRight=4;overflow=hidden;rotatable=0;points=[[0,0.5],[1,0.5]];portConstraint=eastwest;" vertex="1" parent="3PapQ6xfj2ttz4BDpu7m-4">
          <mxGeometry y="104" width="180" height="26" as="geometry" />
        </mxCell>
        <mxCell id="3PapQ6xfj2ttz4BDpu7m-10" value="+ InternalPower*" style="text;strokeColor=none;fillColor=none;align=left;verticalAlign=top;spacingLeft=4;spacingRight=4;overflow=hidden;rotatable=0;points=[[0,0.5],[1,0.5]];portConstraint=eastwest;" vertex="1" parent="3PapQ6xfj2ttz4BDpu7m-4">
          <mxGeometry y="130" width="180" height="26" as="geometry" />
        </mxCell>
        <mxCell id="3PapQ6xfj2ttz4BDpu7m-11" value="+ LeakagePower*" style="text;strokeColor=none;fillColor=none;align=left;verticalAlign=top;spacingLeft=4;spacingRight=4;overflow=hidden;rotatable=0;points=[[0,0.5],[1,0.5]];portConstraint=eastwest;" vertex="1" parent="3PapQ6xfj2ttz4BDpu7m-4">
          <mxGeometry y="156" width="180" height="26" as="geometry" />
        </mxCell>
        <mxCell id="3PapQ6xfj2ttz4BDpu7m-6" value="" style="line;strokeWidth=1;fillColor=none;align=left;verticalAlign=middle;spacingTop=-1;spacingLeft=3;spacingRight=3;rotatable=0;labelPosition=right;points=[];portConstraint=eastwest;" vertex="1" parent="3PapQ6xfj2ttz4BDpu7m-4">
          <mxGeometry y="182" width="180" height="8" as="geometry" />
        </mxCell>
        <mxCell id="3PapQ6xfj2ttz4BDpu7m-7" value="# ConcretePort*" style="text;strokeColor=none;fillColor=none;align=left;verticalAlign=top;spacingLeft=4;spacingRight=4;overflow=hidden;rotatable=0;points=[[0,0.5],[1,0.5]];portConstraint=eastwest;" vertex="1" parent="3PapQ6xfj2ttz4BDpu7m-4">
          <mxGeometry y="190" width="180" height="26" as="geometry" />
        </mxCell>
        <mxCell id="3PapQ6xfj2ttz4BDpu7m-12" value="# virtual LibertyPort* makePort" style="text;strokeColor=none;fillColor=none;align=left;verticalAlign=top;spacingLeft=4;spacingRight=4;overflow=hidden;rotatable=0;points=[[0,0.5],[1,0.5]];portConstraint=eastwest;" vertex="1" parent="3PapQ6xfj2ttz4BDpu7m-4">
          <mxGeometry y="216" width="180" height="26" as="geometry" />
        </mxCell>
        <mxCell id="3PapQ6xfj2ttz4BDpu7m-13" value="# TimingArcSet*" style="text;strokeColor=none;fillColor=none;align=left;verticalAlign=top;spacingLeft=4;spacingRight=4;overflow=hidden;rotatable=0;points=[[0,0.5],[1,0.5]];portConstraint=eastwest;" vertex="1" parent="3PapQ6xfj2ttz4BDpu7m-4">
          <mxGeometry y="242" width="180" height="26" as="geometry" />
        </mxCell>
        <mxCell id="3PapQ6xfj2ttz4BDpu7m-14" value="# TimingArc*" style="text;strokeColor=none;fillColor=none;align=left;verticalAlign=top;spacingLeft=4;spacingRight=4;overflow=hidden;rotatable=0;points=[[0,0.5],[1,0.5]];portConstraint=eastwest;" vertex="1" parent="3PapQ6xfj2ttz4BDpu7m-4">
          <mxGeometry y="268" width="180" height="26" as="geometry" />
        </mxCell>
        <mxCell id="3PapQ6xfj2ttz4BDpu7m-18" value="TimingArcSet" style="swimlane;fontStyle=1;align=center;verticalAlign=top;childLayout=stackLayout;horizontal=1;startSize=26;horizontalStack=0;resizeParent=1;resizeParentMax=0;resizeLast=0;collapsible=1;marginBottom=0;" vertex="1" parent="WIyWlLk6GJQsqaUBKTNV-1">
          <mxGeometry x="510" y="10" width="190" height="268" as="geometry" />
        </mxCell>
        <mxCell id="3PapQ6xfj2ttz4BDpu7m-19" value="+ TimingArcSet()" style="text;strokeColor=none;fillColor=none;align=left;verticalAlign=top;spacingLeft=4;spacingRight=4;overflow=hidden;rotatable=0;points=[[0,0.5],[1,0.5]];portConstraint=eastwest;" vertex="1" parent="3PapQ6xfj2ttz4BDpu7m-18">
          <mxGeometry y="26" width="190" height="26" as="geometry" />
        </mxCell>
        <mxCell id="3PapQ6xfj2ttz4BDpu7m-20" value="+ LibertyCell*&#xa;" style="text;strokeColor=none;fillColor=none;align=left;verticalAlign=top;spacingLeft=4;spacingRight=4;overflow=hidden;rotatable=0;points=[[0,0.5],[1,0.5]];portConstraint=eastwest;" vertex="1" parent="3PapQ6xfj2ttz4BDpu7m-18">
          <mxGeometry y="52" width="190" height="26" as="geometry" />
        </mxCell>
        <mxCell id="3PapQ6xfj2ttz4BDpu7m-21" value="+ LibertyPort*" style="text;strokeColor=none;fillColor=none;align=left;verticalAlign=top;spacingLeft=4;spacingRight=4;overflow=hidden;rotatable=0;points=[[0,0.5],[1,0.5]];portConstraint=eastwest;" vertex="1" parent="3PapQ6xfj2ttz4BDpu7m-18">
          <mxGeometry y="78" width="190" height="26" as="geometry" />
        </mxCell>
        <mxCell id="3PapQ6xfj2ttz4BDpu7m-22" value="+ TimingRole*" style="text;strokeColor=none;fillColor=none;align=left;verticalAlign=top;spacingLeft=4;spacingRight=4;overflow=hidden;rotatable=0;points=[[0,0.5],[1,0.5]];portConstraint=eastwest;" vertex="1" parent="3PapQ6xfj2ttz4BDpu7m-18">
          <mxGeometry y="104" width="190" height="26" as="geometry" />
        </mxCell>
        <mxCell id="3PapQ6xfj2ttz4BDpu7m-23" value="+ TimingArc*" style="text;strokeColor=none;fillColor=none;align=left;verticalAlign=top;spacingLeft=4;spacingRight=4;overflow=hidden;rotatable=0;points=[[0,0.5],[1,0.5]];portConstraint=eastwest;" vertex="1" parent="3PapQ6xfj2ttz4BDpu7m-18">
          <mxGeometry y="130" width="190" height="26" as="geometry" />
        </mxCell>
        <mxCell id="3PapQ6xfj2ttz4BDpu7m-25" value="" style="line;strokeWidth=1;fillColor=none;align=left;verticalAlign=middle;spacingTop=-1;spacingLeft=3;spacingRight=3;rotatable=0;labelPosition=right;points=[];portConstraint=eastwest;" vertex="1" parent="3PapQ6xfj2ttz4BDpu7m-18">
          <mxGeometry y="156" width="190" height="8" as="geometry" />
        </mxCell>
        <mxCell id="3PapQ6xfj2ttz4BDpu7m-26" value="# void init(LibertyCell* cell)" style="text;strokeColor=none;fillColor=none;align=left;verticalAlign=top;spacingLeft=4;spacingRight=4;overflow=hidden;rotatable=0;points=[[0,0.5],[1,0.5]];portConstraint=eastwest;" vertex="1" parent="3PapQ6xfj2ttz4BDpu7m-18">
          <mxGeometry y="164" width="190" height="26" as="geometry" />
        </mxCell>
        <mxCell id="3PapQ6xfj2ttz4BDpu7m-27" value="# TimingArcSet(TimingRole* role)" style="text;strokeColor=none;fillColor=none;align=left;verticalAlign=top;spacingLeft=4;spacingRight=4;overflow=hidden;rotatable=0;points=[[0,0.5],[1,0.5]];portConstraint=eastwest;" vertex="1" parent="3PapQ6xfj2ttz4BDpu7m-18">
          <mxGeometry y="190" width="190" height="26" as="geometry" />
        </mxCell>
        <mxCell id="3PapQ6xfj2ttz4BDpu7m-28" value="# LibertyPort* from_ " style="text;strokeColor=none;fillColor=none;align=left;verticalAlign=top;spacingLeft=4;spacingRight=4;overflow=hidden;rotatable=0;points=[[0,0.5],[1,0.5]];portConstraint=eastwest;" vertex="1" parent="3PapQ6xfj2ttz4BDpu7m-18">
          <mxGeometry y="216" width="190" height="26" as="geometry" />
        </mxCell>
        <mxCell id="3PapQ6xfj2ttz4BDpu7m-29" value="# ...." style="text;strokeColor=none;fillColor=none;align=left;verticalAlign=top;spacingLeft=4;spacingRight=4;overflow=hidden;rotatable=0;points=[[0,0.5],[1,0.5]];portConstraint=eastwest;" vertex="1" parent="3PapQ6xfj2ttz4BDpu7m-18">
          <mxGeometry y="242" width="190" height="26" as="geometry" />
        </mxCell>
        <mxCell id="3PapQ6xfj2ttz4BDpu7m-30" value="" style="endArrow=block;endFill=1;html=1;edgeStyle=orthogonalEdgeStyle;align=left;verticalAlign=top;rounded=0;entryX=0.004;entryY=0.756;entryDx=0;entryDy=0;entryPerimeter=0;exitX=1.006;exitY=0.679;exitDx=0;exitDy=0;exitPerimeter=0;" edge="1" parent="WIyWlLk6GJQsqaUBKTNV-1" source="3PapQ6xfj2ttz4BDpu7m-9" target="3PapQ6xfj2ttz4BDpu7m-22">
          <mxGeometry x="-1" relative="1" as="geometry">
            <mxPoint x="390" y="140" as="sourcePoint" />
            <mxPoint x="550" y="140" as="targetPoint" />
          </mxGeometry>
        </mxCell>
        <mxCell id="3PapQ6xfj2ttz4BDpu7m-32" value="ConcreteCell" style="swimlane;fontStyle=1;align=center;verticalAlign=top;childLayout=stackLayout;horizontal=1;startSize=26;horizontalStack=0;resizeParent=1;resizeParentMax=0;resizeLast=0;collapsible=1;marginBottom=0;" vertex="1" parent="WIyWlLk6GJQsqaUBKTNV-1">
          <mxGeometry x="210" y="700" width="180" height="34" as="geometry" />
        </mxCell>
        <mxCell id="3PapQ6xfj2ttz4BDpu7m-39" value="" style="line;strokeWidth=1;fillColor=none;align=left;verticalAlign=middle;spacingTop=-1;spacingLeft=3;spacingRight=3;rotatable=0;labelPosition=right;points=[];portConstraint=eastwest;" vertex="1" parent="3PapQ6xfj2ttz4BDpu7m-32">
          <mxGeometry y="26" width="180" height="8" as="geometry" />
        </mxCell>
        <mxCell id="3PapQ6xfj2ttz4BDpu7m-45" value="LibertyCell" style="swimlane;fontStyle=1;align=center;verticalAlign=top;childLayout=stackLayout;horizontal=1;startSize=26;horizontalStack=0;resizeParent=1;resizeParentMax=0;resizeLast=0;collapsible=1;marginBottom=0;" vertex="1" parent="WIyWlLk6GJQsqaUBKTNV-1">
          <mxGeometry x="200" y="360" width="200" height="274" as="geometry" />
        </mxCell>
        <mxCell id="3PapQ6xfj2ttz4BDpu7m-55" value="- friend class LibertyBuilder" style="text;strokeColor=none;fillColor=none;align=left;verticalAlign=top;spacingLeft=4;spacingRight=4;overflow=hidden;rotatable=0;points=[[0,0.5],[1,0.5]];portConstraint=eastwest;" vertex="1" parent="3PapQ6xfj2ttz4BDpu7m-45">
          <mxGeometry y="26" width="200" height="26" as="geometry" />
        </mxCell>
        <mxCell id="3PapQ6xfj2ttz4BDpu7m-56" value="- friend class LibertyPort" style="text;strokeColor=none;fillColor=none;align=left;verticalAlign=top;spacingLeft=4;spacingRight=4;overflow=hidden;rotatable=0;points=[[0,0.5],[1,0.5]];portConstraint=eastwest;" vertex="1" parent="3PapQ6xfj2ttz4BDpu7m-45">
          <mxGeometry y="52" width="200" height="26" as="geometry" />
        </mxCell>
        <mxCell id="3PapQ6xfj2ttz4BDpu7m-57" value="- friend class LibertyLibrary" style="text;strokeColor=none;fillColor=none;align=left;verticalAlign=top;spacingLeft=4;spacingRight=4;overflow=hidden;rotatable=0;points=[[0,0.5],[1,0.5]];portConstraint=eastwest;" vertex="1" parent="3PapQ6xfj2ttz4BDpu7m-45">
          <mxGeometry y="78" width="200" height="24" as="geometry" />
        </mxCell>
        <mxCell id="3PapQ6xfj2ttz4BDpu7m-58" value="- friend class LibertyCellPortIterator" style="text;strokeColor=none;fillColor=none;align=left;verticalAlign=top;spacingLeft=4;spacingRight=4;overflow=hidden;rotatable=0;points=[[0,0.5],[1,0.5]];portConstraint=eastwest;" vertex="1" parent="3PapQ6xfj2ttz4BDpu7m-45">
          <mxGeometry y="102" width="200" height="26" as="geometry" />
        </mxCell>
        <mxCell id="3PapQ6xfj2ttz4BDpu7m-47" value="- friend class LibertyPgPortIterator" style="text;strokeColor=none;fillColor=none;align=left;verticalAlign=top;spacingLeft=4;spacingRight=4;overflow=hidden;rotatable=0;points=[[0,0.5],[1,0.5]];portConstraint=eastwest;" vertex="1" parent="3PapQ6xfj2ttz4BDpu7m-45">
          <mxGeometry y="128" width="200" height="26" as="geometry" />
        </mxCell>
        <mxCell id="3PapQ6xfj2ttz4BDpu7m-46" value="" style="line;strokeWidth=1;fillColor=none;align=left;verticalAlign=middle;spacingTop=-1;spacingLeft=3;spacingRight=3;rotatable=0;labelPosition=right;points=[];portConstraint=eastwest;" vertex="1" parent="3PapQ6xfj2ttz4BDpu7m-45">
          <mxGeometry y="154" width="200" height="8" as="geometry" />
        </mxCell>
        <mxCell id="3PapQ6xfj2ttz4BDpu7m-48" value="+ LibertyCell()" style="text;strokeColor=none;fillColor=none;align=left;verticalAlign=top;spacingLeft=4;spacingRight=4;overflow=hidden;rotatable=0;points=[[0,0.5],[1,0.5]];portConstraint=eastwest;" vertex="1" parent="3PapQ6xfj2ttz4BDpu7m-45">
          <mxGeometry y="162" width="200" height="26" as="geometry" />
        </mxCell>
        <mxCell id="3PapQ6xfj2ttz4BDpu7m-52" value="+ ..." style="text;strokeColor=none;fillColor=none;align=left;verticalAlign=top;spacingLeft=4;spacingRight=4;overflow=hidden;rotatable=0;points=[[0,0.5],[1,0.5]];portConstraint=eastwest;" vertex="1" parent="3PapQ6xfj2ttz4BDpu7m-45">
          <mxGeometry y="188" width="200" height="26" as="geometry" />
        </mxCell>
        <mxCell id="3PapQ6xfj2ttz4BDpu7m-50" value="" style="line;strokeWidth=1;fillColor=none;align=left;verticalAlign=middle;spacingTop=-1;spacingLeft=3;spacingRight=3;rotatable=0;labelPosition=right;points=[];portConstraint=eastwest;" vertex="1" parent="3PapQ6xfj2ttz4BDpu7m-45">
          <mxGeometry y="214" width="200" height="8" as="geometry" />
        </mxCell>
        <mxCell id="3PapQ6xfj2ttz4BDpu7m-49" value="# void addPort(ConcretePort* port)" style="text;strokeColor=none;fillColor=none;align=left;verticalAlign=top;spacingLeft=4;spacingRight=4;overflow=hidden;rotatable=0;points=[[0,0.5],[1,0.5]];portConstraint=eastwest;" vertex="1" parent="3PapQ6xfj2ttz4BDpu7m-45">
          <mxGeometry y="222" width="200" height="26" as="geometry" />
        </mxCell>
        <mxCell id="3PapQ6xfj2ttz4BDpu7m-53" value="# ..." style="text;strokeColor=none;fillColor=none;align=left;verticalAlign=top;spacingLeft=4;spacingRight=4;overflow=hidden;rotatable=0;points=[[0,0.5],[1,0.5]];portConstraint=eastwest;" vertex="1" parent="3PapQ6xfj2ttz4BDpu7m-45">
          <mxGeometry y="248" width="200" height="26" as="geometry" />
        </mxCell>
        <mxCell id="3PapQ6xfj2ttz4BDpu7m-51" value="" style="endArrow=open;endSize=12;dashed=1;html=1;rounded=0;exitX=0.5;exitY=0;exitDx=0;exitDy=0;entryX=0.475;entryY=0.97;entryDx=0;entryDy=0;entryPerimeter=0;" edge="1" parent="WIyWlLk6GJQsqaUBKTNV-1" source="3PapQ6xfj2ttz4BDpu7m-45" target="3PapQ6xfj2ttz4BDpu7m-14">
          <mxGeometry width="160" relative="1" as="geometry">
            <mxPoint x="430" y="490" as="sourcePoint" />
            <mxPoint x="290" y="310" as="targetPoint" />
          </mxGeometry>
        </mxCell>
        <mxCell id="3PapQ6xfj2ttz4BDpu7m-54" value="Extends" style="endArrow=block;endSize=16;endFill=0;html=1;rounded=0;exitX=0.471;exitY=1.021;exitDx=0;exitDy=0;exitPerimeter=0;entryX=0.463;entryY=-0.016;entryDx=0;entryDy=0;entryPerimeter=0;" edge="1" parent="WIyWlLk6GJQsqaUBKTNV-1" source="3PapQ6xfj2ttz4BDpu7m-53" target="3PapQ6xfj2ttz4BDpu7m-32">
          <mxGeometry width="160" relative="1" as="geometry">
            <mxPoint x="430" y="420" as="sourcePoint" />
            <mxPoint x="590" y="420" as="targetPoint" />
          </mxGeometry>
        </mxCell>
        <mxCell id="3PapQ6xfj2ttz4BDpu7m-59" value="" style="endArrow=block;endFill=1;html=1;edgeStyle=orthogonalEdgeStyle;align=left;verticalAlign=top;rounded=0;exitX=0.75;exitY=0;exitDx=0;exitDy=0;entryX=-0.001;entryY=1.321;entryDx=0;entryDy=0;entryPerimeter=0;" edge="1" parent="WIyWlLk6GJQsqaUBKTNV-1" source="3PapQ6xfj2ttz4BDpu7m-45" target="3PapQ6xfj2ttz4BDpu7m-23">
          <mxGeometry x="-1" relative="1" as="geometry">
            <mxPoint x="430" y="420" as="sourcePoint" />
            <mxPoint x="590" y="420" as="targetPoint" />
            <Array as="points">
              <mxPoint x="350" y="330" />
              <mxPoint x="470" y="330" />
              <mxPoint x="470" y="174" />
            </Array>
          </mxGeometry>
        </mxCell>
        <mxCell id="3PapQ6xfj2ttz4BDpu7m-62" value="ConcretePort" style="swimlane;fontStyle=1;align=center;verticalAlign=top;childLayout=stackLayout;horizontal=1;startSize=26;horizontalStack=0;resizeParent=1;resizeParentMax=0;resizeLast=0;collapsible=1;marginBottom=0;" vertex="1" parent="WIyWlLk6GJQsqaUBKTNV-1">
          <mxGeometry x="460" y="700" width="180" height="34" as="geometry" />
        </mxCell>
        <mxCell id="3PapQ6xfj2ttz4BDpu7m-63" value="" style="line;strokeWidth=1;fillColor=none;align=left;verticalAlign=middle;spacingTop=-1;spacingLeft=3;spacingRight=3;rotatable=0;labelPosition=right;points=[];portConstraint=eastwest;" vertex="1" parent="3PapQ6xfj2ttz4BDpu7m-62">
          <mxGeometry y="26" width="180" height="8" as="geometry" />
        </mxCell>
        <mxCell id="3PapQ6xfj2ttz4BDpu7m-64" value="LibertyPort" style="swimlane;fontStyle=1;align=center;verticalAlign=top;childLayout=stackLayout;horizontal=1;startSize=26;horizontalStack=0;resizeParent=1;resizeParentMax=0;resizeLast=0;collapsible=1;marginBottom=0;" vertex="1" parent="WIyWlLk6GJQsqaUBKTNV-1">
          <mxGeometry x="470" y="360" width="200" height="248" as="geometry" />
        </mxCell>
        <mxCell id="3PapQ6xfj2ttz4BDpu7m-65" value="- friend class LibertyBuilder" style="text;strokeColor=none;fillColor=none;align=left;verticalAlign=top;spacingLeft=4;spacingRight=4;overflow=hidden;rotatable=0;points=[[0,0.5],[1,0.5]];portConstraint=eastwest;" vertex="1" parent="3PapQ6xfj2ttz4BDpu7m-64">
          <mxGeometry y="26" width="200" height="26" as="geometry" />
        </mxCell>
        <mxCell id="3PapQ6xfj2ttz4BDpu7m-66" value="- friend class LibertyCell" style="text;strokeColor=none;fillColor=none;align=left;verticalAlign=top;spacingLeft=4;spacingRight=4;overflow=hidden;rotatable=0;points=[[0,0.5],[1,0.5]];portConstraint=eastwest;" vertex="1" parent="3PapQ6xfj2ttz4BDpu7m-64">
          <mxGeometry y="52" width="200" height="26" as="geometry" />
        </mxCell>
        <mxCell id="3PapQ6xfj2ttz4BDpu7m-67" value="- friend class LibertyLibrary" style="text;strokeColor=none;fillColor=none;align=left;verticalAlign=top;spacingLeft=4;spacingRight=4;overflow=hidden;rotatable=0;points=[[0,0.5],[1,0.5]];portConstraint=eastwest;" vertex="1" parent="3PapQ6xfj2ttz4BDpu7m-64">
          <mxGeometry y="78" width="200" height="24" as="geometry" />
        </mxCell>
        <mxCell id="3PapQ6xfj2ttz4BDpu7m-68" value="- friend class LibertyReader" style="text;strokeColor=none;fillColor=none;align=left;verticalAlign=top;spacingLeft=4;spacingRight=4;overflow=hidden;rotatable=0;points=[[0,0.5],[1,0.5]];portConstraint=eastwest;" vertex="1" parent="3PapQ6xfj2ttz4BDpu7m-64">
          <mxGeometry y="102" width="200" height="26" as="geometry" />
        </mxCell>
        <mxCell id="3PapQ6xfj2ttz4BDpu7m-70" value="" style="line;strokeWidth=1;fillColor=none;align=left;verticalAlign=middle;spacingTop=-1;spacingLeft=3;spacingRight=3;rotatable=0;labelPosition=right;points=[];portConstraint=eastwest;" vertex="1" parent="3PapQ6xfj2ttz4BDpu7m-64">
          <mxGeometry y="128" width="200" height="8" as="geometry" />
        </mxCell>
        <mxCell id="3PapQ6xfj2ttz4BDpu7m-71" value="+ LibertyPort*" style="text;strokeColor=none;fillColor=none;align=left;verticalAlign=top;spacingLeft=4;spacingRight=4;overflow=hidden;rotatable=0;points=[[0,0.5],[1,0.5]];portConstraint=eastwest;" vertex="1" parent="3PapQ6xfj2ttz4BDpu7m-64">
          <mxGeometry y="136" width="200" height="26" as="geometry" />
        </mxCell>
        <mxCell id="3PapQ6xfj2ttz4BDpu7m-72" value="+ ..." style="text;strokeColor=none;fillColor=none;align=left;verticalAlign=top;spacingLeft=4;spacingRight=4;overflow=hidden;rotatable=0;points=[[0,0.5],[1,0.5]];portConstraint=eastwest;" vertex="1" parent="3PapQ6xfj2ttz4BDpu7m-64">
          <mxGeometry y="162" width="200" height="26" as="geometry" />
        </mxCell>
        <mxCell id="3PapQ6xfj2ttz4BDpu7m-73" value="" style="line;strokeWidth=1;fillColor=none;align=left;verticalAlign=middle;spacingTop=-1;spacingLeft=3;spacingRight=3;rotatable=0;labelPosition=right;points=[];portConstraint=eastwest;" vertex="1" parent="3PapQ6xfj2ttz4BDpu7m-64">
          <mxGeometry y="188" width="200" height="8" as="geometry" />
        </mxCell>
        <mxCell id="3PapQ6xfj2ttz4BDpu7m-74" value="#  LibertyPort()" style="text;strokeColor=none;fillColor=none;align=left;verticalAlign=top;spacingLeft=4;spacingRight=4;overflow=hidden;rotatable=0;points=[[0,0.5],[1,0.5]];portConstraint=eastwest;" vertex="1" parent="3PapQ6xfj2ttz4BDpu7m-64">
          <mxGeometry y="196" width="200" height="26" as="geometry" />
        </mxCell>
        <mxCell id="3PapQ6xfj2ttz4BDpu7m-75" value="# ..." style="text;strokeColor=none;fillColor=none;align=left;verticalAlign=top;spacingLeft=4;spacingRight=4;overflow=hidden;rotatable=0;points=[[0,0.5],[1,0.5]];portConstraint=eastwest;" vertex="1" parent="3PapQ6xfj2ttz4BDpu7m-64">
          <mxGeometry y="222" width="200" height="26" as="geometry" />
        </mxCell>
        <mxCell id="3PapQ6xfj2ttz4BDpu7m-78" value="Extends" style="endArrow=block;endSize=16;endFill=0;html=1;rounded=0;exitX=0.471;exitY=1.021;exitDx=0;exitDy=0;exitPerimeter=0;entryX=0.62;entryY=-0.075;entryDx=0;entryDy=0;entryPerimeter=0;" edge="1" parent="3PapQ6xfj2ttz4BDpu7m-64" target="3PapQ6xfj2ttz4BDpu7m-62">
          <mxGeometry width="160" relative="1" as="geometry">
            <mxPoint x="100.42999999999995" y="247.99599999999998" as="sourcePoint" />
            <mxPoint x="99.57000000000005" y="312.90599999999984" as="targetPoint" />
          </mxGeometry>
        </mxCell>
        <mxCell id="3PapQ6xfj2ttz4BDpu7m-76" value="" style="endArrow=open;endSize=12;dashed=1;html=1;rounded=0;exitX=0.5;exitY=0;exitDx=0;exitDy=0;" edge="1" parent="WIyWlLk6GJQsqaUBKTNV-1" target="3PapQ6xfj2ttz4BDpu7m-14">
          <mxGeometry width="160" relative="1" as="geometry">
            <mxPoint x="572.25" y="360" as="sourcePoint" />
            <mxPoint x="567.75" y="303.2199999999999" as="targetPoint" />
          </mxGeometry>
        </mxCell>
        <mxCell id="3PapQ6xfj2ttz4BDpu7m-79" value="" style="endArrow=none;html=1;edgeStyle=orthogonalEdgeStyle;rounded=0;exitX=0.996;exitY=0.718;exitDx=0;exitDy=0;exitPerimeter=0;" edge="1" parent="WIyWlLk6GJQsqaUBKTNV-1" source="3PapQ6xfj2ttz4BDpu7m-57">
          <mxGeometry relative="1" as="geometry">
            <mxPoint x="430" y="460" as="sourcePoint" />
            <mxPoint x="470" y="455" as="targetPoint" />
          </mxGeometry>
        </mxCell>
        <mxCell id="3PapQ6xfj2ttz4BDpu7m-80" value="cell" style="edgeLabel;resizable=0;html=1;align=left;verticalAlign=bottom;" connectable="0" vertex="1" parent="3PapQ6xfj2ttz4BDpu7m-79">
          <mxGeometry x="-1" relative="1" as="geometry" />
        </mxCell>
        <mxCell id="3PapQ6xfj2ttz4BDpu7m-81" value="port" style="edgeLabel;resizable=0;html=1;align=right;verticalAlign=bottom;" connectable="0" vertex="1" parent="3PapQ6xfj2ttz4BDpu7m-79">
          <mxGeometry x="1" relative="1" as="geometry" />
        </mxCell>
      </root>
    </mxGraphModel>
  </diagram>
</mxfile>
